<?xml version="1.0" encoding="UTF-8"?>
<svg width="400" height="400" viewBox="0 0 400 400" fill="none" xmlns="http://www.w3.org/2000/svg">
    <!-- Background Circle -->
    <circle cx="200" cy="200" r="200" fill="#3498db"/>
    
    <!-- Face -->
    <circle cx="200" cy="150" r="100" fill="#f5d7b5"/>
    
    <!-- Hair -->
    <path d="M100 150C100 94.7715 144.772 50 200 50V50C255.228 50 300 94.7715 300 150V180H100V150Z" fill="#2c3e50"/>
    <path d="M120 140C120 140 150 180 200 180C250 180 280 140 280 140C280 140 250 200 200 200C150 200 120 140 120 140Z" fill="#2c3e50"/>
    
    <!-- Eyes -->
    <circle cx="160" cy="140" r="10" fill="#2c3e50"/>
    <circle cx="240" cy="140" r="10" fill="#2c3e50"/>
    
    <!-- Smile -->
    <path d="M160 170C160 170 180 190 200 190C220 190 240 170 240 170" stroke="#2c3e50" stroke-width="5" stroke-linecap="round"/>
    
    <!-- Body/Clothes -->
    <path d="M100 250V400H300V250C300 250 250 300 200 300C150 300 100 250 100 250Z" fill="#e74c3c"/>
    
    <!-- Collar -->
    <path d="M180 250H220L200 280L180 250Z" fill="white"/>
</svg> 